<svg width="52" height="52" viewBox="0 0 52 52" fill="none" xmlns="http://www.w3.org/2000/svg">
<g clip-path="url(#clip0_11_155)">
<path d="M43.3335 15.1667H32.5002V8.66668C32.5002 6.28334 30.5502 4.33334 28.1668 4.33334H23.8335C21.4502 4.33334 19.5002 6.28334 19.5002 8.66668V15.1667H8.66683C6.2835 15.1667 4.3335 17.1167 4.3335 19.5V43.3333C4.3335 45.7167 6.2835 47.6667 8.66683 47.6667H43.3335C45.7168 47.6667 47.6668 45.7167 47.6668 43.3333V19.5C47.6668 17.1167 45.7168 15.1667 43.3335 15.1667ZM19.5002 26C21.2985 26 22.7502 27.4517 22.7502 29.25C22.7502 31.0483 21.2985 32.5 19.5002 32.5C17.7018 32.5 16.2502 31.0483 16.2502 29.25C16.2502 27.4517 17.7018 26 19.5002 26ZM26.0002 39H13.0002V37.375C13.0002 35.2083 17.3335 34.125 19.5002 34.125C21.6668 34.125 26.0002 35.2083 26.0002 37.375V39ZM28.1668 19.5H23.8335V8.66668H28.1668V19.5ZM39.0002 35.75H30.3335V32.5H39.0002V35.75ZM39.0002 29.25H30.3335V26H39.0002V29.25Z" fill="white"/>
</g>
<defs>
<clipPath id="clip0_11_155">
<rect width="52" height="52" fill="white"/>
</clipPath>
</defs>
</svg>
