<svg width="52" height="52" viewBox="0 0 52 52" fill="none" xmlns="http://www.w3.org/2000/svg">
<path d="M6.50016 13C5.3085 13 4.3335 13.975 4.3335 15.1667V43.3333C4.3335 45.7167 6.2835 47.6667 8.66683 47.6667H36.8335C38.0252 47.6667 39.0002 46.6917 39.0002 45.5C39.0002 44.3083 38.0252 43.3333 36.8335 43.3333H10.8335C9.64183 43.3333 8.66683 42.3583 8.66683 41.1667V15.1667C8.66683 13.975 7.69183 13 6.50016 13ZM43.3335 4.33334H17.3335C14.9502 4.33334 13.0002 6.28334 13.0002 8.66668V34.6667C13.0002 37.05 14.9502 39 17.3335 39H43.3335C45.7168 39 47.6668 37.05 47.6668 34.6667V8.66668C47.6668 6.28334 45.7168 4.33334 43.3335 4.33334ZM39.0002 23.8333H21.6668C20.4752 23.8333 19.5002 22.8583 19.5002 21.6667C19.5002 20.475 20.4752 19.5 21.6668 19.5H39.0002C40.1918 19.5 41.1668 20.475 41.1668 21.6667C41.1668 22.8583 40.1918 23.8333 39.0002 23.8333ZM30.3335 32.5H21.6668C20.4752 32.5 19.5002 31.525 19.5002 30.3333C19.5002 29.1417 20.4752 28.1667 21.6668 28.1667H30.3335C31.5252 28.1667 32.5002 29.1417 32.5002 30.3333C32.5002 31.525 31.5252 32.5 30.3335 32.5ZM39.0002 15.1667H21.6668C20.4752 15.1667 19.5002 14.1917 19.5002 13C19.5002 11.8083 20.4752 10.8333 21.6668 10.8333H39.0002C40.1918 10.8333 41.1668 11.8083 41.1668 13C41.1668 14.1917 40.1918 15.1667 39.0002 15.1667Z" fill="white"/>
</svg>
